<svg width="48" height="48" viewBox="0 0 48 48" fill="none" xmlns="http://www.w3.org/2000/svg">
<path fill-rule="evenodd" clip-rule="evenodd" d="M15.6 7.19995C14.4402 7.19995 13.5 8.14015 13.5 9.29995V11.4H11.4C9.08036 11.4 7.19995 13.2804 7.19995 15.6V36.5999C7.19995 38.9195 9.08036 40.7999 11.4 40.7999H36.5999C38.9195 40.7999 40.7999 38.9195 40.7999 36.5999V15.6C40.7999 13.2804 38.9195 11.4 36.5999 11.4H34.5V9.29995C34.5 8.14015 33.5597 7.19995 32.4 7.19995C31.2402 7.19995 30.2999 8.14015 30.2999 9.29995V11.4H17.7V9.29995C17.7 8.14015 16.7597 7.19995 15.6 7.19995ZM15.6 17.7C14.4402 17.7 13.5 18.6402 13.5 19.8C13.5 20.9597 14.4402 21.9 15.6 21.9H32.4C33.5597 21.9 34.5 20.9597 34.5 19.8C34.5 18.6402 33.5597 17.7 32.4 17.7H15.6Z" fill="#14597A"/>
</svg>
