<svg width="48" height="48" viewBox="0 0 48 48" fill="none" xmlns="http://www.w3.org/2000/svg">
<path fill-rule="evenodd" clip-rule="evenodd" d="M24 40.7999C33.2783 40.7999 40.7999 33.2783 40.7999 24C40.7999 14.7216 33.2783 7.19995 24 7.19995C14.7216 7.19995 7.19995 14.7216 7.19995 24C7.19995 33.2783 14.7216 40.7999 24 40.7999ZM25 15.6C25 15.0477 24.5522 14.6 24 14.6C23.4477 14.6 23 15.0477 23 15.6V24C23 24.2652 23.1053 24.5195 23.2928 24.7071L29.2325 30.6468C29.6231 31.0373 30.2562 31.0373 30.6468 30.6468C31.0373 30.2562 31.0373 29.6231 30.6468 29.2325L25 23.5857V15.6Z" fill="#14597A"/>
</svg>
