<svg width="24" height="24" viewBox="0 0 24 24" fill="none" xmlns="http://www.w3.org/2000/svg">
<path d="M10.355 9.28883C10.5176 9.18047 10.7183 9.08362 10.95 9.00866L10.95 10.7915C10.7183 10.7166 10.5176 10.6197 10.355 10.5114C9.97271 10.2565 9.89998 10.0197 9.89998 9.9001C9.89998 9.7805 9.97271 9.5437 10.355 9.28883Z" fill="#14597A"/>
<path d="M13.05 14.9915L13.05 13.2087C13.2816 13.2836 13.4824 13.3805 13.6449 13.4888C14.0273 13.7437 14.1 13.9805 14.1 14.1001C14.1 14.2197 14.0273 14.4565 13.6449 14.7114C13.4824 14.8197 13.2816 14.9166 13.05 14.9915Z" fill="#14597A"/>
<path fill-rule="evenodd" clip-rule="evenodd" d="M12 20.4001C16.6392 20.4001 20.4 16.6393 20.4 12.0001C20.4 7.36091 16.6392 3.6001 12 3.6001C7.36078 3.6001 3.59998 7.36091 3.59998 12.0001C3.59998 16.6393 7.36078 20.4001 12 20.4001ZM13.05 6.7501C13.05 6.1702 12.5799 5.7001 12 5.7001C11.4201 5.7001 10.95 6.1702 10.95 6.7501V6.84669C10.2973 6.96926 9.69363 7.20587 9.19015 7.54152C8.43239 8.04669 7.79998 8.8599 7.79998 9.9001C7.79998 10.9403 8.43239 11.7535 9.19015 12.2587C9.69363 12.5943 10.2973 12.8309 10.95 12.9535L10.95 14.9918C10.5394 14.8585 10.2351 14.6586 10.0645 14.462C9.68442 14.024 9.02126 13.977 8.58326 14.357C8.14527 14.7371 8.09829 15.4002 8.47834 15.8382C9.06896 16.5189 9.96251 16.9675 10.95 17.1531L10.95 17.2501C10.95 17.83 11.4201 18.3001 12 18.3001C12.5799 18.3001 13.05 17.83 13.05 17.2501L13.05 17.1535C13.7027 17.0309 14.3063 16.7943 14.8098 16.4587C15.5676 15.9535 16.2 15.1403 16.2 14.1001C16.2 13.0599 15.5676 12.2467 14.8098 11.7415C14.3063 11.4059 13.7027 11.1693 13.05 11.0467L13.05 9.00839C13.4605 9.14169 13.7649 9.3416 13.9355 9.53824C14.3155 9.97624 14.9787 10.0232 15.4167 9.64316C15.8547 9.26311 15.9017 8.59995 15.5216 8.16195C14.931 7.48128 14.0375 7.03271 13.05 6.84707V6.7501Z" fill="#14597A"/>
</svg>
