<svg width="24" height="24" viewBox="0 0 24 24" fill="none" xmlns="http://www.w3.org/2000/svg">
<path d="M14.8001 7.8C14.8001 9.3464 13.5465 10.6 12.0001 10.6C10.4537 10.6 9.2001 9.3464 9.2001 7.8C9.2001 6.2536 10.4537 5 12.0001 5C13.5465 5 14.8001 6.2536 14.8001 7.8Z" fill="#14597A"/>
<path d="M19.4668 9.66667C19.4668 10.6976 18.631 11.5333 17.6001 11.5333C16.5692 11.5333 15.7334 10.6976 15.7334 9.66667C15.7334 8.63574 16.5692 7.8 17.6001 7.8C18.631 7.8 19.4668 8.63574 19.4668 9.66667Z" fill="#14597A"/>
<path d="M15.7334 16.2C15.7334 14.1381 14.062 12.4667 12.0001 12.4667C9.93823 12.4667 8.26676 14.1381 8.26676 16.2V19H15.7334V16.2Z" fill="#14597A"/>
<path d="M8.26676 9.66667C8.26676 10.6976 7.43103 11.5333 6.4001 11.5333C5.36917 11.5333 4.53343 10.6976 4.53343 9.66667C4.53343 8.63574 5.36917 7.8 6.4001 7.8C7.43103 7.8 8.26676 8.63574 8.26676 9.66667Z" fill="#14597A"/>
<path d="M17.6001 19V16.2C17.6001 15.2161 17.3464 14.2915 16.9008 13.488C17.1243 13.4306 17.3586 13.4 17.6001 13.4C19.1465 13.4 20.4001 14.6536 20.4001 16.2V19H17.6001Z" fill="#14597A"/>
<path d="M7.09941 13.488C6.65382 14.2915 6.4001 15.2161 6.4001 16.2V19H3.6001V16.2C3.6001 14.6536 4.8537 13.4 6.4001 13.4C6.64156 13.4 6.87588 13.4306 7.09941 13.488Z" fill="#14597A"/>
</svg>
